<svg xmlns="http://www.w3.org/2000/svg" width="512" height="512" fill="none" viewBox="0 0 512 512"><rect width="512" height="512" x="-.006" y="0" fill="#262626" rx="100"/><rect width="173.138" height="40.543" x="20.93" y="109.01" fill="#FACC15" rx="20.271" transform="rotate(0.0432252 20.9297 109.01)"/><rect width="173.138" height="40.543" x="100.982" y="183.969" fill="#FACC15" rx="20.271" transform="rotate(0.0432252 100.982 183.969)"/><rect width="173.138" height="40.543" x="181.491" y="259.354" fill="#FACC15" rx="20.271" transform="rotate(0.0432252 181.491 259.354)"/><rect width="62.431" height="40.543" x="261.998" y="334.739" fill="#FACC15" rx="20.271" transform="rotate(0.0432252 261.998 334.739)"/><path fill="#FACC15" d="M442.513 435.922C445.843 442.651 438.906 449.847 432.059 446.766L355.339 412.235C350.291 409.962 349.021 403.373 352.863 399.387L392.264 358.515C396.106 354.53 402.737 355.557 405.193 360.519L442.513 435.922Z"/></svg>